<svg xmlns="http://www.w3.org/2000/svg" viewBox="130 80 240 240" width="100%" height="100%">
  <defs>
    <linearGradient id="srcIconTeacherGrad" x1="0%" y1="0%" x2="100%" y2="100%">
      <stop offset="0%" stop-color="#091e4a" />
      <stop offset="100%" stop-color="#0f3478" />
    </linearGradient>

    <linearGradient id="srcIconStudentGrad" x1="0%" y1="0%" x2="100%" y2="100%">
      <stop offset="0%" stop-color="#0066e6" />
      <stop offset="100%" stop-color="#00aaff" />
    </linearGradient>

    <linearGradient id="srcIconCrestGrad" x1="0%" y1="0%" x2="100%" y2="100%">
      <stop offset="0%" stop-color="#07183d" />
      <stop offset="60%" stop-color="#0a265e" />
      <stop offset="100%" stop-color="#0f3984" />
    </linearGradient>

    <linearGradient id="srcIconBookUpperGrad" x1="0%" y1="0%" x2="100%" y2="100%">
      <stop offset="0%" stop-color="#0080ff" />
      <stop offset="100%" stop-color="#00bfff" />
    </linearGradient>

    <linearGradient id="srcIconBookLowerGrad" x1="0%" y1="0%" x2="100%" y2="100%">
      <stop offset="0%" stop-color="#0052cc" />
      <stop offset="100%" stop-color="#0099ff" />
    </linearGradient>
  </defs>

  <circle cx="250" cy="200" r="116" fill="#ffffff" />

  <!-- 1. Teacher Figure (Left) -->
  <circle cx="196" cy="116" r="23" fill="url(#srcIconTeacherGrad)" />
  <path
    d="M 158,154
       C 158,138 172,126 188,126
       C 198,126 210,132 216,140
       L 248,120
       L 252,130
       L 222,154
       Z"
    fill="url(#srcIconTeacherGrad)"
  />

  <!-- 2. Interactive Screen / Monitor (Center) -->
  <rect
    x="226"
    y="94"
    width="78"
    height="52"
    rx="9"
    fill="#ffffff"
    stroke="#0084ff"
    stroke-width="7"
  />
  <polygon points="257,110 277,120 257,130" fill="#0084ff" />

  <!-- 3. Student Figure (Right) -->
  <circle cx="328" cy="142" r="21" fill="url(#srcIconStudentGrad)" />
  <path
    d="M 314,166
       C 324,164 344,168 348,185
       C 352,204 336,236 318,244
       C 328,226 332,198 322,180
       C 318,174 314,170 314,166
       Z"
    fill="url(#srcIconStudentGrad)"
  />

  <!-- 4. Desk Bar -->
  <polygon points="156,155 312,155 292,176 164,176" fill="url(#srcIconCrestGrad)" />

  <!-- 5. Stylized Central Crest -->
  <path
    d="M 176,184
       C 192,234 220,256 264,254
       C 304,252 324,228 322,198
       C 316,218 296,232 265,232
       C 230,232 208,214 196,184
       Z"
    fill="url(#srcIconCrestGrad)"
  />
  <path
    d="M 218,206
       C 238,206 276,212 284,188
       C 288,178 286,172 282,170
       C 278,180 262,188 244,188
       C 228,188 214,182 204,176
       L 194,192
       C 200,202 208,206 218,206
       Z"
    fill="url(#srcIconCrestGrad)"
  />

  <!-- 6. Open Book Foundation -->
  <path
    d="M 250,268
       C 214,242 174,236 150,242
       C 150,256 186,256 222,268
       C 236,272 246,278 250,284
       Z"
    fill="url(#srcIconBookUpperGrad)"
  />
  <path
    d="M 250,268
       C 286,242 326,236 350,242
       C 350,256 314,256 278,268
       C 264,272 254,278 250,284
       Z"
    fill="url(#srcIconBookUpperGrad)"
  />

  <path
    d="M 250,286
       C 210,262 168,260 142,266
       C 142,280 180,280 220,292
       C 234,296 246,304 250,312
       Z"
    fill="url(#srcIconBookLowerGrad)"
  />
  <path
    d="M 250,286
       C 290,262 332,260 358,266
       C 358,280 320,280 280,292
       C 266,296 254,304 250,312
       Z"
    fill="url(#srcIconBookLowerGrad)"
  />
</svg>
